<svg height="511pt" viewBox="0 0 511 511.9996" width="511pt" xmlns="http://www.w3.org/2000/svg"><path d="m219.445312 90.804688c15-24.171876 48.867188-58.871094 98.957032-62.3125 37.757812-2.59375 70.328125-15.082032 93.40625-26.878907 12.171875-6.222656 25.238281 6.722657 19.054687 18.941407-14.527343 28.691406-38.046875 63.628906-70.199219 75.144531-31.84375 11.40625-52.078124 32.566406-63.824218 49.246093-15.59375 22.148438-46.613282 27.398438-67.949219 10.753907-.53125-.414063-33.601563-25.957031-9.445313-64.894531zm0 0" fill="#546370"/><path d="m228.890625 155.699219c21.335937 16.644531 52.355469 11.390625 67.949219-10.753907 11.746094-16.679687 31.984375-37.839843 63.824218-49.246093 14.898438-5.335938 27.941407-15.699219 39.09375-28.136719-37.09375-21.65625-76.871093-30.703125-107.035156-34.351562-36.105468 10.980468-61 37.808593-73.277344 57.59375-24.15625 38.9375 8.914063 64.480468 9.445313 64.894531zm0 0" fill="#3d4751"/><path d="m169.703125 463.9375c9.652344-43.339844-.78125-82.234375-.78125-83.378906-39.238281 9.257812-89.75 6.101562-118.78125 3.015625-14.183594-1.507813-23.972656-14.910157-21.207031-28.945313 5.125-25.976562 17.367187-43.789062 17.367187-43.789062h-25.105469c-11.546874 0-20.871093-9.488282-20.691406-21.066406.28125-18.347657 3.808594-35.464844 7.777344-49.085938 4.839844-16.625 18.761719-29.109375 35.804688-31.882812 24.414062-3.976563 62.835937-17.300782 94.179687-60.097657 50.164063-68.484375 132.378906-78.269531 132.378906-78.269531s117.050781-20.964844 153.28125 106.222656c23.742188 83.351563 47.484375 201.449219 61.03125 272.957032 6.128907 32.375-18.589843 62.355468-51.441406 62.363281-64.277344.019531-163.308594.035156-225.855469-.007813-25.121094-.015625-43.4375-23.445312-37.957031-48.035156zm0 0" fill="#60daa8"/><path d="m484.957031 449.621094c-13.546875-71.511719-37.289062-189.609375-61.03125-272.957032-7.382812-25.921874-18.117187-45.683593-30.539062-60.730468l-84.445313 57.996094s3.90625 53.414062 40.027344 97.179687c35.96875 43.589844-27.972656 138.070313-17 240.890625 36.5625-.003906 72.585938-.011719 101.550781-.019531 32.847657-.007813 57.570313-29.988281 51.4375-62.359375zm0 0" fill="#00ce8e"/><path d="m287.332031 310.546875c.265625-19.1875-15.527343-34.625-34.648437-33.992187-38.453125 1.277343-88.464844 18.113281-117.152344 27.46875-38.601562 12.582031-89.230469 6.816406-89.230469 6.816406s-12.242187 17.8125-17.363281 43.789062c-2.769531 14.03125 7.019531 27.433594 21.203125 28.941406 29.03125 3.085938 79.542969 6.242188 118.78125-3.015624 49.089844-7.773438 86.308594-28.253907 104.226563-42.414063 14.1875-11.210937 14.183593-27.371094 14.183593-27.59375zm0 0" fill="#00c172"/><g fill="#fffcdc"><path d="m87.144531 339.433594c1.554688-7.933594 4.441407-18.390625 9.910157-28.199219-12.246094 1.027344-23.746094 1.050781-32.695313.765625.449219 7.320312 2.5 19.5 10.492187 30.269531 3.574219 4.8125 11.136719 3.050781 12.292969-2.835937zm0 0"/><path d="m140.734375 332.507812c.710937-9.027343 2.707031-21.394531 8.265625-32.871093-4.855469 1.566406-9.382812 3.054687-13.46875 4.386719-6.550781 2.132812-13.445312 3.730468-20.382812 4.925781 1.429687 7.285156 4.960937 18.488281 13.703124 27.796875 4.101563 4.367187 11.414063 1.746094 11.882813-4.238282zm0 0"/><path d="m182.808594 323.832031c4.804687 3.578125 11.542968-.289062 10.960937-6.261719-.828125-8.480468-1.050781-20.070312 1.8125-31.640624-11.273437 2.867187-22.289062 6.085937-32.425781 9.222656 1.976562 6.304687 7.34375 19.503906 19.652344 28.679687zm0 0"/></g><path d="m74.730469 249.820312c-12.058594 4.386719-24.015625 1.90625-26.710938-5.539062-2.695312-7.449219 4.894531-17.042969 16.953125-21.433594 12.054688-4.386718 24.015625-1.910156 26.707032 5.539063 2.695312 7.445312-4.894532 17.042969-16.949219 21.433593zm0 0" fill="#546370"/><path d="m299.496094 109.035156c15-24.175781 48.863281-58.871094 98.953125-62.316406 37.761719-2.59375 70.332031-15.082031 93.410156-26.878906 12.171875-6.222656 25.238281 6.726562 19.050781 18.941406-14.527344 28.691406-38.042968 63.628906-70.195312 75.144531-31.84375 11.40625-52.082032 32.566407-63.828125 49.25-15.589844 22.144531-46.613281 27.394531-67.949219 10.753907-.53125-.414063-33.597656-25.960938-9.441406-64.894532zm0 0" fill="#6b7d8e"/><path d="m437.191406 187.402344c12.304688 12.34375 54.378906 74.558594 42.078125 86.898437-12.304687 12.34375-74.332031-29.859375-86.636719-42.203125-12.304687-12.339844-12.304687-32.351562 0-44.695312 12.304688-12.339844 32.253907-12.339844 44.558594 0zm0 0" fill="#f4e74d"/><path d="m460.679688 305.261719c10.371093 10.402343 45.828124 62.832031 35.460937 73.234375-10.371094 10.398437-62.640625-25.167969-73.011719-35.570313-10.371094-10.398437-10.371094-27.261719 0-37.664062 10.371094-10.402344 27.183594-10.402344 37.550782 0zm0 0" fill="#f4e74d"/><path d="m476.386719 407.796875c8.632812 8.660156 38.152343 52.308594 29.519531 60.96875-8.632812 8.65625-52.152344-20.953125-60.785156-29.609375-8.632813-8.660156-8.632813-22.699219 0-31.359375 8.632812-8.660156 22.632812-8.660156 31.265625 0zm0 0" fill="#f4e74d"/><path d="m175.949219 197.851562c-4.269531 0-7.726563-3.460937-7.726563-7.726562v-12.828125c0-4.265625 3.457032-7.726563 7.726563-7.726563 4.265625 0 7.726562 3.460938 7.726562 7.726563v12.828125c0 4.265625-3.460937 7.726562-7.726562 7.726562zm0 0" fill="#454545"/></svg>