<svg height="512pt" viewBox="0 -6 512.00103 512" width="512pt" xmlns="http://www.w3.org/2000/svg"><path d="m93.789062 212.019531s9.816407-120.640625 105.546876-152.964843c40.371093-13.628907 66.691406-32.257813 83.636718-49.246094 16.113282-16.152344 43.765625-9.058594 50.3125 12.800781 26.722656 89.183594 45.570313 258.273437-169.285156 311.476563 1.324219-1.019532-70.210938-122.066407-70.210938-122.066407zm0 0" fill="#ff5d9c"/><path d="m356.378906 273.167969s55.695313 24.25 69.136719 87.628906c5.699219 26.859375 18.636719 41.449219 31.65625 49.347656 11.089844 6.726563 9.554687 23.289063-2.523437 28.011719-49.960938 19.53125-139.222657 35.996094-206.914063-53.351562-2.746094-4.800782 108.644531-111.636719 108.644531-111.636719zm0 0" fill="#ff83b4"/><path d="m418.609375 338.648438c-19.703125-46.960938-62.230469-65.480469-62.230469-65.480469s-111.390625 106.835937-108.644531 111.636719c22.332031 29.472656 47.007813 47.429687 71.847656 57.5625 5.570313-25.199219 25.398438-45.59375 46.34375-52.03125 28.066407-8.621094 44.230469-33.289063 52.683594-51.6875zm0 0" fill="#ff5d9c"/><path d="m215.519531 221.886719s30.429688-117.152344 130.296875-132.519531c42.109375-6.476563 71.246094-20.296876 90.859375-34.117188 18.652344-13.140625 44.671875-1.394531 47.363281 21.265625 10.972657 92.453125.441407 262.265625-220.367187 277.699219 1.480469-.773438-48.152344-132.328125-48.152344-132.328125zm0 0" fill="#ffabcd"/><path d="m215.519531 221.886719s49.632813 131.554687 48.152344 132.328125c31.179687-2.179688 58.160156-7.433594 81.484375-15.117188-1.960938-15.359375-1.128906-32.207031 3.980469-50.394531 20.398437-72.589844-11.613281-158.148437-27.257813-193.363281-80.867187 28.425781-106.359375 126.546875-106.359375 126.546875zm0 0" fill="#ff83b4"/><path d="m39.5625 354.214844c-23.273438 0-30.398438-11.035156-30.40625-23.5625-.015625-23.800782 23.167969-21.929688 23.425781-21.925782 37.699219 1.257813 65.414063-7.464843 82.371094-25.90625 25.003906-27.1875 20.464844-68.636718 20.414063-69.054687l45.019531-5.628906c.320312 2.511719 7.40625 62.070312-31.660157 104.984375-24.84375 27.285156-61.542968 41.09375-109.164062 41.09375zm0 0" fill="#ffb39d"/><path d="m303.285156 500.296875c23.273438 0 30.40625-11.035156 30.40625-23.566406 0-23.179688-23.167968-21.929688-23.425781-21.921875-37.703125 1.257812-65.417969-7.46875-82.375-25.90625-25-27.1875-20.460937-68.636719-20.410156-69.054688l-45.019531-5.632812c-.320313 2.515625-7.40625 62.074218 31.65625 104.984375 24.84375 27.289062 61.546874 41.097656 109.167968 41.097656zm0 0" fill="#ffb39d"/><path d="m357.039062 482.378906c23.273438 0 30.40625-11.035156 30.40625-23.566406 0-24.078125-23.167968-21.929688-23.421874-21.921875-37.703126 1.257813-65.417969-7.46875-82.375-25.90625-25-27.1875-20.460938-68.636719-20.414063-69.054687l-45.019531-5.632813c-.320313 2.515625-7.40625 62.074219 31.660156 104.984375 24.84375 27.289062 61.546875 41.097656 109.164062 41.097656zm0 0" fill="#ffcbbe"/><path d="m116.480469 231.578125s-26.144531 120.667969 39.789062 227.082031c6.097657 9.839844 20.394531 9.960938 26.746094.285156 8.644531-13.179687 18.507813-27.957031 18.507813-27.957031l29.386718 14.914063c11.84375 6.007812 26.300782.847656 31.660156-11.300782l13.054688-29.585937 39.25-2.457031c9.972656-.621094 14.710938-12.589844 7.847656-19.851563-32.320312-34.1875-96.507812-111.277343-98.699218-186.257812zm0 0" fill="#60daa8"/><path d="m254.878906 292.726562c-16.949218-29.953124-29.890625-63.316406-30.855468-96.277343l-107.542969 35.128906s-26.144531 120.667969 39.789062 227.078125c6.097657 9.839844 20.394531 9.964844 26.746094.285156 8.648437-13.175781 18.507813-27.953125 18.507813-27.953125l29.390624 14.910157c11.839844 6.011718 26.296876.847656 31.660157-11.300782-10.554688-6.507812-18.957031-12.890625-25.640625-18.824218-14.515625-12.890626-17.097656-34.871094-5.453125-50.410157 15.472656-20.648437 21.269531-50.660156 23.398437-72.636719zm0 0" fill="#00ce8e"/><path d="m80.179688 382.886719c-23.273438 0-30.398438-11.039063-30.40625-23.566407-.019532-23.023437 23.167968-21.929687 23.421874-21.921874 37.703126 1.257812 65.417969-7.46875 82.375-25.90625 25.003907-27.191407 20.460938-68.640626 20.414063-69.054688l45.019531-5.632812c.320313 2.515624 7.40625 62.070312-31.660156 104.984374-24.84375 27.289063-61.546875 41.09375-109.164062 41.097657zm0 0" fill="#ffcbbe"/><path d="m314.0625 201.296875c0 27.832031-22.558594 50.390625-50.390625 50.390625-27.828125 0-50.386719-22.558594-50.386719-50.390625 0-27.828125 22.558594-50.390625 50.386719-50.390625 27.832031 0 50.390625 22.5625 50.390625 50.390625zm0 0" fill="#b24e2f"/><path d="m269.109375 165.3125c0 54.597656-44.257813 98.859375-98.855469 98.859375s-98.859375-44.261719-98.859375-98.859375 44.261719-98.855469 98.859375-98.855469 98.855469 44.257813 98.855469 98.855469zm0 0" fill="#ffddcf"/><path d="m148.828125 68.785156c6.898437-1.523437 14.066406-2.328125 21.425781-2.328125 49.703125 0 90.839844 36.6875 97.8125 84.453125-114.921875-10.824218-119.238281-82.125-119.238281-82.125zm0 0" fill="#dd6642"/><path d="m191.679688 68.785156c-6.902344-1.523437-14.066407-2.328125-21.425782-2.328125-49.703125 0-90.839844 36.683594-97.816406 84.449219 114.925781-10.824219 119.242188-82.121094 119.242188-82.121094zm0 0" fill="#e7896e"/><path d="m60.539062 6.394531 4.558594 8.332031c4.542969 8.3125 11.375 15.144532 19.6875 19.6875l8.332032 4.558594c8.523437 4.660156 8.523437 16.90625 0 21.570313l-8.332032 4.554687c-8.3125 4.546875-15.144531 11.378906-19.6875 19.6875l-4.558594 8.332032c-4.660156 8.523437-16.90625 8.523437-21.570312 0l-4.554688-8.332032c-4.546874-8.308594-11.378906-15.140625-19.6875-19.6875l-8.332031-4.554687c-8.527343-4.664063-8.527343-16.910157 0-21.574219l8.332031-4.554688c8.308594-4.546874 15.140626-11.378906 19.6875-19.6875l4.554688-8.332031c4.664062-8.527343 16.910156-8.527343 21.570312 0zm0 0" fill="#b0f0ef"/><path d="m487.210938 306.730469 2.902343 5.296875c2.890625 5.289062 7.234375 9.632812 12.519531 12.523437l5.300782 2.898438c5.421875 2.964843 5.421875 10.753906 0 13.722656l-5.300782 2.898437c-5.285156 2.890626-9.628906 7.234376-12.519531 12.519532l-2.902343 5.300781c-2.964844 5.421875-10.753907 5.421875-13.71875 0l-2.898438-5.300781c-2.890625-5.285156-7.238281-9.628906-12.523438-12.519532l-5.296874-2.898437c-5.425782-2.96875-5.425782-10.757813 0-13.722656l5.296874-2.898438c5.285157-2.890625 9.632813-7.234375 12.523438-12.523437l2.898438-5.296875c2.964843-5.425781 10.753906-5.425781 13.71875 0zm0 0" fill="#b0f0ef"/><g fill="#454545"><path d="m219.089844 198.269531c-4.265625 0-7.726563-3.460937-7.726563-7.726562v-12.828125c0-4.265625 3.460938-7.726563 7.726563-7.726563 4.269531 0 7.726562 3.460938 7.726562 7.726563v12.828125c0 4.265625-3.457031 7.726562-7.726562 7.726562zm0 0"/><path d="m121.414062 198.269531c-4.265624 0-7.726562-3.460937-7.726562-7.726562v-12.828125c0-4.265625 3.460938-7.726563 7.726562-7.726563 4.269532 0 7.726563 3.460938 7.726563 7.726563v12.828125c0 4.265625-3.457031 7.726562-7.726563 7.726562zm0 0"/><path d="m175.53125 182.824219c-1.734375 2.539062-4.253906 2.847656-5.277344 2.847656-1.023437 0-3.589844-.28125-5.277344-2.847656-2.34375-3.566407-7.136718-4.558594-10.699218-2.21875-3.566406 2.34375-4.558594 7.132812-2.21875 10.699219 4.039062 6.148437 10.839844 9.816406 18.195312 9.816406 7.351563 0 14.152344-3.667969 18.191406-9.816406 2.34375-3.566407 1.351563-8.355469-2.214843-10.699219-1.308594-.855469-7.089844-3.082031-10.699219 2.21875zm0 0"/></g></svg>