<?xml version="1.0"?>
<svg xmlns="http://www.w3.org/2000/svg" height="512px" viewBox="0 0 512 512.00296" width="512px" class=""><g><path d="m397.242188 348.25c.015624 54.367188-31.195313 103.914062-80.242188 127.378906-4.851562 2.386719-9.035156 5.933594-12.183594 10.328125-10.878906 16.230469-29.117187 25.992188-48.65625 26.046875-19.539062.050782-37.828125-9.609375-48.796875-25.78125-3.21875-4.554687-7.53125-8.226562-12.535156-10.679687-50.304687-24.101563-81.664063-75.601563-79.980469-131.355469.804688-21.585938 6.636719-42.683594 17.039063-61.617188l8.828125-4.324218c5.710937-2.914063 12.472656-2.914063 18.183594 0l17.125 8.472656c2.128906 1.074219 4.429687 1.761719 6.796874 2.03125 2.390626.292969 4.816407.144531 7.152344-.441406.730469-.15625 1.441406-.390625 2.117188-.707032.820312-.214843 1.621094-.511718 2.382812-.882812l17.125-8.472656c5.710938-2.914063 12.472656-2.914063 18.1875 0l17.125 8.472656c5.710938 2.914062 12.472656 2.914062 18.183594 0l17.125-8.472656c5.710938-2.914063 12.472656-2.914063 18.183594 0l17.128906 8.472656c.761719.371094 1.5625.667969 2.382812.882812.675782.316407 1.386719.550782 2.117188.707032 2.335938.585937 4.761719.734375 7.152344.441406 2.367187-.269531 4.667968-.957031 6.796875-2.03125l17.125-8.472656c5.710937-2.914063 12.472656-2.914063 18.183593 0l11.566407 5.738281c9.554687 20.070313 14.472656 42.035156 14.386719 64.265625zm0 0" fill="#a773b4" data-original="#A773B4" class="active-path" style="fill:#D1FF00" data-old_color="#E0FF00"/><path d="m382.855469 283.984375-11.566407-5.738281c-5.710937-2.914063-12.472656-2.914063-18.183593 0l-17.125 8.472656c-2.128907 1.074219-4.429688 1.761719-6.796875 2.03125-2.390625.292969-4.816406.144531-7.152344-.441406-.730469-.15625-1.441406-.390625-2.117188-.707032-.820312-.214843-1.621093-.511718-2.382812-.882812l-17.128906-8.472656c-5.710938-2.914063-12.472656-2.914063-18.183594 0l-17.125 8.472656c-5.710938 2.914062-12.472656 2.914062-18.183594 0l-17.125-8.472656c-5.714844-2.914063-12.476562-2.914063-18.1875 0l-17.125 8.472656c-.761718.371094-1.5625.667969-2.382812.882812-.675782.316407-1.386719.550782-2.117188.707032-2.335937.585937-4.761718.734375-7.152344.441406-2.367187-.269531-4.667968-.957031-6.796874-2.03125l-17.125-8.472656c-5.710938-2.914063-12.472657-2.914063-18.183594 0l-8.828125 4.324218c16.191406-29.882812 41.613281-53.726562 72.472656-67.972656 9.832031-4.164062 16.25-13.773437 16.332031-24.453125v-57.730469c0-25.511718-23.039062-41.753906-35.839844-48.90625-6.453124-3.652343-9.636718-11.195312-7.75-18.363281 1.886719-7.171875 8.367188-12.175781 15.78125-12.179687h126.234376c7.417968.003906 13.898437 5.007812 15.785156 12.179687 1.886718 7.167969-1.296875 14.710938-7.75 18.363281-12.800782 7.152344-35.839844 23.394532-35.839844 48.90625v56.144532c-.066406 10.695312 6.355469 20.367187 16.242188 24.449218 33.1875 13.257813 60.105468 38.628907 75.300781 70.976563zm0 0" fill="#bddcf3" data-original="#BDDCF3" class="" style="fill:#00FFE2" data-old_color="#00FFEA"/><path d="m229.519531 0h52.964844c9.75 0 17.65625 7.90625 17.65625 17.65625v35.308594h-88.277344v-35.308594c0-9.75 7.90625-17.65625 17.65625-17.65625zm0 0" fill="#bfa057" data-original="#BFA057" class="" style="fill:#BF8D5B" data-old_color="#BD8C5A"/><g fill="#a773b4"><path d="m344.277344 176.550781c-3.058594 0-5.898438-1.585937-7.503906-4.1875-1.609376-2.601562-1.753907-5.847656-.386719-8.585937l8.828125-17.65625c1.40625-2.820313 4.214844-4.675782 7.367187-4.867188 3.148438-.191406 6.160157 1.3125 7.898438 3.945313 1.742187 2.632812 1.945312 5.992187.535156 8.816406l-8.828125 17.65625c-1.496094 2.992187-4.5625 4.882813-7.910156 4.878906zm0 0" data-original="#000000" class=""/><path d="m361.933594 203.035156c-3.570313 0-6.789063-2.152344-8.15625-5.449218-1.363282-3.300782-.609375-7.09375 1.914062-9.621094l8.828125-8.828125c3.464844-3.34375 8.96875-3.296875 12.375.109375 3.402344 3.40625 3.453125 8.910156.105469 12.375l-8.828125 8.828125c-1.652344 1.65625-3.898437 2.585937-6.238281 2.585937zm0 0" data-original="#000000" class=""/><path d="m167.726562 176.550781c-3.363281.019531-6.441406-1.875-7.945312-4.878906l-8.828125-17.65625c-2.179687-4.363281-.410156-9.667969 3.953125-11.847656 4.363281-2.179688 9.667969-.410157 11.847656 3.953125l8.828125 17.65625c1.363281 2.730468 1.222657 5.972656-.378906 8.570312-1.597656 2.601563-4.425781 4.191406-7.476563 4.203125zm0 0" data-original="#000000" class=""/><path d="m150.070312 203.035156c-2.339843 0-4.585937-.929687-6.242187-2.585937l-8.828125-8.828125c-3.34375-3.464844-3.296875-8.96875.109375-12.375s8.910156-3.453125 12.375-.109375l8.828125 8.828125c2.523438 2.527344 3.277344 6.320312 1.910156 9.621094-1.363281 3.296874-4.582031 5.449218-8.152344 5.449218zm0 0" data-original="#000000" class=""/></g><path d="m256 326.621094 24.664062 33.605468 44 10.230469-28.753906 30.996094 2.527344 39.925781-42.4375-14.449218-42.433594 14.449218 2.527344-39.925781-28.753906-30.996094 43.996094-10.230469zm0 0" fill="#f6db6d" data-original="#F6DB6D" class=""/><path d="m39.726562 211.863281 14.273438 20.683594 25.449219 6.292969-16.628907 19.074218 1.453126 24.570313-24.546876-8.890625-24.550781 8.890625 1.457031-24.570313-16.632812-19.074218 25.453125-6.292969zm0 0" fill="#f4cd1e" data-original="#F4CD1E" class="" style="fill:#F4CD1E"/><path d="m75.035156 441.378906 14.273438 20.683594 25.453125 6.292969-16.632813 19.078125 1.457032 24.566406-24.550782-8.890625-24.546875 8.890625 1.453125-24.566406-16.628906-19.078125 25.449219-6.292969zm0 0" fill="#f4cd1e" data-original="#F4CD1E" class="" style="fill:#F4CD1E"/><path d="m472.277344 211.863281-14.273438 20.683594-25.449218 6.292969 16.628906 19.074218-1.457032 24.570313 24.550782-8.890625 24.550781 8.890625-1.457031-24.570313 16.628906-19.074218-25.449219-6.292969zm0 0" fill="#f4cd1e" data-original="#F4CD1E" class="" style="fill:#F4CD1E"/><path d="m436.96875 441.378906-14.277344 20.683594-25.449218 6.292969 16.632812 19.078125-1.457031 24.566406 24.550781-8.890625 24.546875 8.890625-1.457031-24.566406 16.632812-19.078125-25.449218-6.292969zm0 0" fill="#f4cd1e" data-original="#F4CD1E" class="" style="fill:#F4CD1E"/></g> </svg>
