<svg height="512pt" viewBox="0 -31 512.00015 512" width="512pt" xmlns="http://www.w3.org/2000/svg"><path d="m489.980469 218.875c-23.777344 2.347656-44.042969 13.238281-58.03125 23.171875-10.980469 7.796875-26.144531 5.113281-33.78125-5.980469-9.730469-14.132812-25.023438-31.316406-46.550781-41.6875-12.511719-6.027344-27.210938 2.246094-28.65625 16.0625-3.621094 34.636719 1.125 97.238282 75.757812 120.914063 78.222656 3.386719 104.171875-53.78125 112.664062-87.558594 3.382813-13.46875-7.582031-26.285156-21.402343-24.921875zm0 0" fill="#00bdba"/><path d="m301.984375 144.320312c10.183594-51.988281-7.921875-92.839843-40.203125-124.519531-25.320312-24.847656-68.023438-20.460937-85.265625-17.414062-5.003906.882812-10.109375.882812-15.113281 0-17.238282-3.046875-59.945313-7.433594-85.265625 17.414062-32.28125 31.679688-50.382813 72.53125-40.199219 124.519531 10.183594 51.984376-79.203125 115.347657 30.546875 180.96875 1.132813-1.128906 203.816406-1.128906 204.949219 0 109.75-65.621093 20.367187-128.984374 30.550781-180.96875zm0 0" fill="#f6334c"/><path d="m30.621094 329.839844c-23.4375 0-30.621094-11.113282-30.621094-23.730469 0-23.597656 23.332031-22.082031 23.589844-22.074219 37.964844 1.265625 65.875-7.523437 82.953125-26.089844 25.175781-27.382812 20.605469-69.121093 20.554687-69.539062l45.335938-5.671875c.324218 2.53125 7.460937 62.507813-31.878906 105.722656-25.019532 27.480469-61.980469 41.382813-109.933594 41.382813zm0 0" fill="#ff8f71"/><path d="m101.523438 204.394531s-27.132813 245.9375 159.203124 245.9375c122.902344 0 151.230469-91.867187 156.277344-154.414062 1.058594-13.136719-15.75-19.488281-23.652344-8.941407-14.789062 19.734376-38.261718 38.082032-74.429687 38.082032-78.253906 0-78.3125-142.324219-78.3125-142.324219zm0 0" fill="#76e7e7"/><path d="m281.875 425.722656c-14.136719-16.046875-17.078125-39.328125-6.863281-58.113281 12.800781-23.535156 11.84375-52.445313 11.84375-52.445313-46.199219-32.28125-46.246094-132.429687-46.246094-132.429687l-139.085937 21.65625s-27.132813 245.941406 159.203124 245.941406c17.035157 0 32.257813-1.765625 45.847657-4.972656-10.457031-5.75-18.519531-12.621094-24.699219-19.636719zm0 0" fill="#2eddda"/><path d="m240.609375 182.734375-139.085937 21.660156s-1.703126 15.421875-1.328126 38.539063c5.457032 2.539062 12.085938 6.71875 18.269532 13.566406 5.359375 5.929688 14.214844 7.210938 21.078125 3.117188 10.203125-6.082032 27.089843-12.386719 51.488281-10.257813l-3.40625 28.523437s29.664062 5.605469 68.445312-6.652343c-15.4375-40.300781-15.460937-88.496094-15.460937-88.496094zm0 0" fill="#ffcbbe"/><path d="m71.523438 358.710938c-23.4375 0-30.621094-11.113282-30.621094-23.730469 0-22.859375 23.332031-22.082031 23.589844-22.074219 37.964843 1.265625 65.875-7.519531 82.953124-26.089844 25.175782-27.378906 20.605469-69.121094 20.554688-69.539062l45.335938-5.671875c.320312 2.53125 7.457031 62.507812-31.882813 105.722656-25.015625 27.480469-61.976563 41.382813-109.929687 41.382813zm0 0" fill="#ffb39d"/><path d="m261.78125 139.613281c0 54.980469-44.570312 99.550781-99.550781 99.550781s-99.550781-44.570312-99.550781-99.550781 44.570312-99.554687 99.550781-99.554687 99.550781 44.574218 99.550781 99.554687zm0 0" fill="#ffddcf"/><path d="m140.648438 42.40625c6.949218-1.535156 14.171874-2.347656 21.582031-2.347656 50.050781 0 91.476562 36.941406 98.5 85.046875-115.734375-10.902344-120.082031-82.699219-120.082031-82.699219zm0 0" fill="#fd5c6f"/><path d="m183.804688 42.40625c-6.949219-1.539062-14.164063-2.347656-21.574219-2.347656-50.054688 0-91.480469 36.945312-98.503907 85.046875 115.734376-10.898438 120.078126-82.699219 120.078126-82.699219zm0 0" fill="#ff8a98"/><path d="m212.933594 178.132812c-4.269532 0-7.726563-3.460937-7.726563-7.726562v-12.828125c0-4.265625 3.457031-7.726563 7.726563-7.726563 4.269531 0 7.726562 3.460938 7.726562 7.726563v12.828125c0 4.265625-3.457031 7.726562-7.726562 7.726562zm0 0" fill="#454545"/><path d="m115.253906 178.132812c-4.265625 0-7.726562-3.460937-7.726562-7.726562v-12.828125c0-4.265625 3.460937-7.726563 7.726562-7.726563 4.269532 0 7.726563 3.460938 7.726563 7.726563v12.828125c0 4.265625-3.457031 7.726562-7.726563 7.726562zm0 0" fill="#454545"/><path d="m169.371094 162.6875c-1.730469 2.539062-4.253906 2.847656-5.277344 2.847656s-3.589844-.277344-5.277344-2.847656c-2.34375-3.566406-7.132812-4.558594-10.699218-2.214844-3.566407 2.339844-4.558594 7.132813-2.21875 10.699219 4.039062 6.148437 10.839843 9.816406 18.195312 9.816406 7.351562 0 14.15625-3.667969 18.191406-9.816406 2.34375-3.566406 1.351563-8.359375-2.214844-10.699219-1.304687-.859375-7.089843-3.085937-10.699218 2.214844zm0 0" fill="#ff4a0d"/></svg>