<svg height="512pt" viewBox="-52 0 512 512.00037" width="512pt" xmlns="http://www.w3.org/2000/svg"><path d="m316.566406 512h-225.800781c-26.320313 0-47.65625-21.335938-47.65625-47.65625v-27.144531c0-42.15625 34.175781-76.332031 76.335937-76.332031h168.445313c42.15625 0 76.335937 34.175781 76.335937 76.332031v27.144531c0 26.320312-21.339843 47.65625-47.660156 47.65625zm0 0" fill="#dd6642"/><path d="m147.722656 438.679688v-77.8125h-28.277344c-42.160156 0-76.335937 34.175781-76.335937 76.332031v27.144531c0 26.320312 21.335937 47.65625 47.65625 47.65625h42.332031c-13.902344-41.210938 14.625-73.320312 14.625-73.320312zm0 0" fill="#b24e2f"/><path d="m203.667969 378.957031 55.679687 58.46875c7.816406 8.207031 21.339844 6.519531 26.902344-3.355469l10.691406-18.976562c4.207032-7.476562 11.933594-12.292969 20.496094-12.785156l28.058594-1.613282c13.539062-.777343 18.824218-17.964843 8.0625-26.214843l-49.863282-38.234375zm0 0" fill="#e7896e"/><path d="m101.605469 342.949219-31 10.910156c-12.675781 4.460937-14.015625 21.855469-2.175781 28.207031l21.402343 11.472656c7.054688 3.785157 10.953125 11.609376 9.726563 19.519532l-2.640625 17.019531c-1.722657 11.085937 8.570312 20.253906 19.386719 17.269531l49.191406-13.570312c5.40625-1.492188 11.195312-.5 15.800781 2.707031l20.113281 14.007813c11.457032 7.980468 27.324219 1.335937 29.683594-12.425782l16.289062-95.117187zm0 0" fill="#f2ad9a"/><path d="m82.792969 247.441406c14.382812 14.378906 14.382812 37.695313 0 52.078125-14.378907 14.382813-37.695313 14.382813-52.078125 0-7.898438-7.898437-20.078125-35.785156-29.457032-59.324219-5.554687-13.941406 8.273438-27.765624 22.214844-22.210937 23.539063 9.378906 51.421875 21.558594 59.320313 29.457031zm0 0" fill="#00a65b"/><path d="m324.539062 247.441406c-14.378906 14.378906-14.378906 37.695313 0 52.078125 14.382813 14.382813 37.699219 14.382813 52.078126 0 7.898437-7.898437 20.078124-35.785156 29.457031-59.324219 5.554687-13.941406-8.269531-27.765624-22.210938-22.210937-23.539062 9.378906-51.425781 21.558594-59.324219 29.457031zm0 0" fill="#00c172"/><path d="m232.144531 398.4375h-56.953125c-60.046875 0-108.71875-48.675781-108.71875-108.71875v-80.507812c0-75.769532 61.421875-137.195313 137.195313-137.195313 75.769531 0 137.195312 61.425781 137.195312 137.195313v80.507812c0 60.042969-48.675781 108.71875-108.71875 108.71875zm0 0" fill="#60daa8"/><path d="m130.628906 226.03125c-10.6875-90.839844 76.46875-139.1875 101.410156-151.078125-9.148437-1.921875-18.652343-2.9375-28.371093-2.9375-75.773438 0-137.195313 61.425781-137.195313 137.195313v80.507812c0 57.386719 44.476563 104.390625 100.832032 108.4375-46.578126-25.722656-26.664063-86.960938-36.675782-172.125zm0 0" fill="#00ce8e"/><path d="m146.164062 309c0-9.351562-9.519531-16.933594-21.261718-16.933594-11.746094 0-21.265625 7.582032-21.265625 16.933594s9.519531 16.933594 21.265625 16.933594c11.742187 0 21.261718-7.582032 21.261718-16.933594zm0 0" fill="#ffb3dd"/><path d="m303.695312 309c0-9.351562-9.519531-16.933594-21.261718-16.933594-11.746094 0-21.265625 7.582032-21.265625 16.933594s9.519531 16.933594 21.265625 16.933594c11.742187 0 21.261718-7.582032 21.261718-16.933594zm0 0" fill="#ffb3dd"/><g fill="#454545"><path d="m267.339844 306.144531c-4.269532 0-7.726563-3.460937-7.726563-7.726562v-12.828125c0-4.265625 3.457031-7.726563 7.726563-7.726563 4.265625 0 7.726562 3.460938 7.726562 7.726563v12.828125c0 4.265625-3.460937 7.726562-7.726562 7.726562zm0 0"/><path d="m139.996094 306.144531c-4.269532 0-7.726563-3.460937-7.726563-7.726562v-12.828125c0-4.265625 3.457031-7.726563 7.726563-7.726563 4.265625 0 7.726562 3.460938 7.726562 7.726563v12.828125c0 4.265625-3.460937 7.726562-7.726562 7.726562zm0 0"/><path d="m208.945312 290.699219c-1.734374 2.542969-4.253906 2.847656-5.277343 2.847656-1.023438 0-3.589844-.277344-5.277344-2.847656-2.34375-3.566407-7.136719-4.558594-10.699219-2.214844-3.566406 2.34375-4.558594 7.132813-2.21875 10.699219 4.039063 6.148437 10.839844 9.816406 18.195313 9.816406 7.351562 0 14.152343-3.667969 18.191406-9.816406 2.34375-3.566406 1.351563-8.355469-2.214844-10.699219-1.308593-.859375-7.089843-3.082031-10.699219 2.214844zm0 0"/></g><path d="m173.285156 234.835938c-4.9375 7.460937-14.992187 9.507812-22.457031 4.566406l-20.203125-13.375c-7.460938-4.941406-9.507812-14.996094-4.566406-22.457032 4.941406-7.464843 14.996094-9.507812 22.460937-4.566406l20.199219 13.371094c7.464844 4.941406 9.507812 14.996094 4.566406 22.460938zm0 0" fill="#00c172"/><path d="m236 234.835938c4.941406 7.460937 14.996094 9.507812 22.457031 4.566406l20.203125-13.375c7.460938-4.941406 9.507813-14.996094 4.566406-22.457032-4.941406-7.464843-14.996093-9.507812-22.457031-4.566406l-20.203125 13.371094c-7.464844 4.941406-9.507812 14.996094-4.566406 22.460938zm0 0" fill="#00c172"/><path d="m159.769531 97.726562c-5.019531-26.242187-3.742187-61.617187 24.980469-92.324218 8.457031-9.046875 23.4375-6.324219 28.109375 5.140625 5.042969 12.378906 10.269531 25.457031 10.269531 25.457031l34.273438-11.757812c9.0625-3.113282 18.675781 2.972656 19.746094 12.496093l4.339843 38.648438 13.515625 2.785156c12.144532 2.5 17.871094 16.496094 10.988282 26.8125-13.988282 20.96875-43.011719 48.027344-97.285157 39.722656-24.554687-3.757812-44.277343-22.582031-48.9375-46.980469zm0 0" fill="#b0f0ef"/><path d="m216.964844 110.867188c-17.066406-29.867188 6.164062-74.867188 6.164062-74.867188s-5.226562-13.078125-10.265625-25.457031c-4.675781-11.464844-19.65625-14.1875-28.113281-5.140625-28.71875 30.707031-30 66.082031-24.980469 92.324218 4.664063 24.398438 24.386719 43.222657 48.9375 46.980469 21.425781 3.277344 38.921875 1.042969 53.105469-4.152343-15.765625-7.230469-33.316406-9.515626-44.847656-29.6875zm0 0" fill="#76e7e7"/></svg>