<?xml version="1.0" encoding="utf-8"?>
<!-- Generator: Adobe Illustrator 22.1.0, SVG Export Plug-In . SVG Version: 6.00 Build 0)  -->
<svg version="1.1" id="Слой_1" xmlns="http://www.w3.org/2000/svg" xmlns:xlink="http://www.w3.org/1999/xlink" x="0px" y="0px"
	 viewBox="0 0 318.8 118.2" style="enable-background:new 0 0 318.8 118.2;" xml:space="preserve">
<style type="text/css">
	.st0{fill:#E6007E;}
	.st1{fill:#009FE3;}
	.st2{fill:#009640;}
</style>
<g>
	<path d="M2.8,25.3c-2.3,6.6-0.5,14.4,4.4,19.4c7.7,7.9,20.8,7.4,31,3.2s19-11.3,29.1-15.7s23.1-5.3,31.2,2.1
		c6.5,5.9,8.8,16.1,16.6,20.3c3,1.6,6.4,2.1,9.7,2.5c10.9,1.4,22.9,2.6,31.8-3.9c3.5-2.5,6.1-6,8.8-9.4c5.6-6.9,12.2-13.6,20.5-16.7
		c8.4-3.1,18.9-2,24.6,4.9c3.4,4.1,4.7,9.5,6.9,14.4s5.9,9.8,11.2,10.4c2.7,0.3,5.4-0.6,7.8-1.7c10.7-5,18.1-15.1,27.5-22.5
		c5-3.9,12.5-7,17.4-3c3.3,2.6,4,7.4,7.1,10.3c2.6,2.4,6.2,3,9.7,3.5c4.3,0.6,9,1.1,12.9-0.9c4.8-2.4,7.3-7.9,7.6-13.2
		s-1.3-10.5-2.9-15.6C314.5,9.2,322,0,312.9,0c-3.8,0-10.9,0-14.7,0C206.7,0.2,115.2,0.7,23.7,1.6C15.6,1.7,2.3-4-1.7,2.9
		c-1.7,2.9,1.8,13,1.7,16.4c-0.1,6.5,0.7,13.1,2.4,19.4"/>
	<g>
		<path d="M0.4,24.6c-3.3,11,2,22.6,12.8,26.9c11.4,4.5,23.9,0.4,34.1-5.2C59.5,39.5,72,29.3,86.9,31.6c13.9,2.2,15,16.4,24.8,23.7
			c4.9,3.6,11.2,4.1,17.1,4.7c6.5,0.7,13.1,1.1,19.5-0.4c13.4-3.2,18.9-16.1,28.7-24.3c5.5-4.5,12.2-7.7,19.4-7.3
			c8.4,0.5,13.3,5.6,16.3,13c4.1,10.3,10.2,21.9,23.3,16.9c12.5-4.8,19.8-16.7,30.4-24.1c3.1-2.2,7.3-4.4,11.2-3.3
			c4,1.1,4.9,5.3,7,8.4c3.1,4.7,8,6.1,13.3,6.8c5.9,0.8,12.3,1.1,17.1-3c3.9-3.3,5.9-8.5,6.2-13.6c0.2-3.2-0.3-6.4-1-9.4
			c-0.7-3.2-2.3-6.2-1.7-9.5c0.6-3.1,2.5-6.6,0.8-9.7c-2-3.8-7.2-3.1-10.8-3.1c-6.7,0-13.5,0-20.2,0c-16.9,0-33.8,0.1-50.7,0.1
			C203.7-2.2,169.9-2,136.1-1.8S68.4-1.3,34.6-1c-6.8,0.1-13.2,0.1-20-1c-4.5-0.8-9.8-1.9-14.1,0C-8.4,1.7-3,12-2.5,19
			C-2,26-1.7,32.5,0,39.3c0.8,3.1,5.6,1.8,4.8-1.3C3.2,31.5,3,25.3,2.5,18.6C2.2,14.5,0,10.1,0.4,6C0.8,0.4,8,1.9,12,2.6
			c5.3,0.8,10.2,1.6,15.6,1.5c30.5-0.3,61-0.6,91.5-0.8c60.5-0.4,120.9-0.8,181.4-0.8c2.8,0,13.2-1.4,14.4,1c0.4,0.9-0.8,3.7-1,4.5
			c-0.5,1.8-0.9,3.6-0.6,5.5c0.9,6.6,4.3,12.4,2.3,19.3c-2.6,9-11.2,9.1-18.9,7.7c-3.7-0.7-6.4-2-8.5-5.3c-1.1-1.8-1.9-3.7-3.2-5.4
			c-3-3.9-7.5-5.3-12.3-4.3c-11,2.2-18.6,13.1-26.6,20c-4.3,3.8-11.9,10.2-18.2,8.6c-6.9-1.8-8.9-10.7-11.3-16.4
			c-4.2-9.9-12.9-15.4-23.8-14.6c-11.2,0.9-20.1,8.4-27.2,16.6c-4,4.6-7.4,10.1-12.9,13c-6.1,3.3-13.3,3.3-20,2.8
			c-7.3-0.6-15.7-0.8-20.8-6.7c-3.7-4.2-5.8-9.5-9.4-13.8c-7.5-8.9-19.7-10.1-30.4-7.1c-14.1,3.9-24.8,15-38.8,19
			c-6.5,1.9-14.3,2.4-20.5-1c-7.2-4-10-12.2-7.7-19.9C6.1,22.8,1.3,21.5,0.4,24.6L0.4,24.6z"/>
	</g>
</g>
<g>
	<path class="st0" d="M32.1,40.6c-0.2-1.6-2.8-1.2-4-0.1c-4,3.7-4.4,10.3-2.1,15.3s6.7,8.7,11.3,11.8c2.3,1.6,5.1,3.1,7.8,2.3
		c3.8-1,5.1-5.7,5.8-9.6c0.6-3.9,1.2-7.7,1.9-11.6c0.4-2.4,0.8-4.9,0.2-7.3s-2.5-4.6-4.9-4.9c-1.7-0.2-3.3,0.6-5,0.9
		c-1.7,0.3-3.8-0.2-4.4-1.8c-0.3-0.9,0-1.9,0.3-2.9c0.8-2.5,1.6-5,2.5-7.5c0.2-0.5,0.3-1.2-0.1-1.6c-0.5-0.5-1.3-0.2-1.8,0.2
		c-3.3,2.1-5.6,5.5-6.3,9.3c-0.1,0.6-0.3,1.4-0.8,1.7c-0.8,0.4-1.6-0.2-2.2-0.8c-2.1-2.1-4.2-4.1-6.3-6.2c-1.7,3.5,0.5,8.2,4.2,9.2
		c-3.4-0.2-6.9,0.7-9.8,2.5c-0.6,0.4-1.2,0.9-1.2,1.6c0,1.3,1.8,1.6,3.1,1.3c3.6-0.6,7-1.7,10.4-3.1"/>
	<g>
		<path class="st0" d="M34.3,39.3c-2.8-5.4-8.9-0.5-10.7,3.1c-2.7,5.5-1.5,12.2,1.7,17.2c3.4,5.2,10.9,12.4,17.5,12.8
			c6,0.4,8.9-4.6,10.1-9.8c1-4.4,1.5-9,2.2-13.4c0.5-3.5,1.1-7.1-0.5-10.4c-1.1-2.4-3.3-4.4-6-4.9c-1.7-0.3-3.1,0.2-4.7,0.5
			c-3.7,0.7-2.6-1.5-1.7-4c0.7-2.2,2.8-5.8,1.2-8.1c-1.2-1.8-3.5-1.6-5.3-0.7c-2.8,1.5-5.1,4.6-6.4,7.5c-0.3,0.6-0.5,1.3-0.7,2
			c-0.3,1.9-0.5,1.9-0.5-0.1c-1.8-1.3-3.4-3.3-5-4.9c-1.4-1.4-3.5-0.6-4.2,1.1c-1.9,5.2,0.9,10.4,6,12.3c0.2-1.6,0.4-3.3,0.7-4.9
			c-3.8,0-15.1,1.5-13.3,7.6c1.8,6.2,13.1,0.9,16.4-0.4c2.9-1.2,1.7-6-1.3-4.8c-2.2,0.9-5.9,1.3-7.7,2.6c-0.7-0.1-1.1,0.2-1,0.8
			c-0.4,0.9,0,1,1.2,0.1c1.7,0.1,3.9-0.9,5.7-0.9c3,0,3.2-4,0.7-4.9c-2.7-1-3.4-3.6-2.5-6.1c-1.4,0.4-2.8,0.7-4.2,1.1
			c2.3,2.3,7,9.1,11,7.6c1.1-0.4,1.9-1.4,2.3-2.5c0.7-1.5,0.6-2.9,1.4-4.4c0.5-1,2.8-4.6,3.9-4.3c-0.6-0.6-1.2-1.2-1.7-1.7
			c0.4,1.2-1.4,4.6-1.8,5.8c-0.4,1.2-1,2.6-1.1,4c-0.1,2.1,0.8,4,2.6,5c2.3,1.3,4.3,0.3,6.7,0.2c4.1-0.1,5.5,1.5,5.4,5.7
			c-0.1,2.6-0.7,5.3-1.2,7.9c-0.6,3.4-0.8,7.1-1.9,10.4c-2.1,6.5-7.7,3.4-11.5,0.5c-3.3-2.5-6.7-5.8-8.2-9.8
			c-0.5-1.5-0.8-3.2-0.8-4.8c0-0.9,2.7-7.6,2.9-7.2C31.5,44.7,35.8,42.2,34.3,39.3L34.3,39.3z"/>
	</g>
</g>
<g>
	<path class="st1" d="M228.1,78.6c-5.1-3-9-7.9-11-13.4c-0.7-2-1.2-4.2-0.9-6.3c0.8-6.1,7.3-9.7,13.2-11.3c2.3-0.6,4.7-1.1,7-0.8
		c4.8,0.6,8.9,4.4,10.5,8.9c1.6,4.6,1.1,9.7-0.8,14.2c-2.8,6.9-10.1,12.8-17.3,11c-5.9-1.5-9.5-7.4-12-13.1"/>
	<g>
		<path class="st1" d="M229.4,76.4c-6.1-3.9-14.8-14.2-8.6-21.4c5.1-5.9,17.1-8.3,22.1-1.6c5.5,7.2,1.8,18.9-5.5,23.5
			c-8.8,5.5-15-3.1-18.2-10.3c-1.3-2.9-5.6-0.4-4.3,2.5c4.8,10.6,14.9,19.6,26.3,11.3c9.2-6.7,13-21.7,5.1-30.8
			c-7.5-8.7-23.1-5.6-29.8,2.9c-7.6,9.8,1.9,22.8,10.4,28.3C229.6,82.5,232.1,78.2,229.4,76.4L229.4,76.4z"/>
	</g>
</g>
<g>
	<g>
		<path class="st1" d="M225.6,61c2.5,0.6,5.1,1.1,7.6,1.7c3.1,0.7,4.5-4.1,1.3-4.8c-2.5-0.6-5.1-1.1-7.6-1.7
			C223.7,55.5,222.4,60.3,225.6,61L225.6,61z"/>
	</g>
</g>
<g>
	<g>
		<path class="st1" d="M222,55c3.4,0.3,6.5,1.5,9.2,3.6c0.6,0.5,1.5-0.4,0.9-0.9c-2.9-2.4-6.3-3.7-10.1-4
			C221.2,53.7,221.2,54.9,222,55L222,55z"/>
	</g>
</g>
<g>
	<g>
		<path class="st1" d="M230,48.8c-0.8,4.9-1.7,9.7-2.5,14.6c-0.1,0.8,1.1,1.1,1.2,0.3c0.8-4.9,1.7-9.7,2.5-14.6
			C231.3,48.3,230.1,48,230,48.8L230,48.8z"/>
	</g>
</g>
<g>
	<g>
		<path d="M222.3,57.3c2,1.5,4.2,2.3,6.7,2.6c0.8,0.1,0.8-1.2,0-1.3c-2.2-0.3-4.3-1.1-6.1-2.4C222.3,55.7,221.7,56.8,222.3,57.3
			L222.3,57.3z"/>
	</g>
</g>
<g>
	<g>
		<path d="M230.5,53.2c-2.6,2.2-4.5,5-5.6,8.2c-0.3,0.8,0.9,1.1,1.2,0.3c1.1-3,2.9-5.6,5.3-7.6C232,53.5,231.1,52.7,230.5,53.2
			L230.5,53.2z"/>
	</g>
</g>
<g>
	<g>
		<path d="M29,48.4c0.2,1.2,0.5,2.3,0.7,3.5c0.2,0.8,1.4,0.5,1.2-0.3c-0.2-1.2-0.5-2.3-0.7-3.5C30,47.3,28.8,47.6,29,48.4L29,48.4z"
			/>
	</g>
</g>
<g>
	<g>
		<path d="M35.4,56.9c0.7,1.2,1.4,2.3,2.1,3.5c0.4,0.7,1.5,0.1,1.1-0.6c-0.7-1.2-1.4-2.3-2.1-3.5C36.1,55.6,35,56.3,35.4,56.9
			L35.4,56.9z"/>
	</g>
</g>
<g>
	<g>
		<path d="M35.3,40.7c0.2,1.6,0.5,3.3,0.7,4.9c0.1,0.8,1.3,0.5,1.2-0.3c-0.2-1.6-0.5-3.3-0.7-4.9C36.4,39.6,35.1,39.9,35.3,40.7
			L35.3,40.7z"/>
	</g>
</g>
<g>
	<g>
		<path d="M41.6,49.8c0.5,1.2,0.9,2.3,1.4,3.5c0.3,0.7,1.5,0.4,1.2-0.3c-0.5-1.2-0.9-2.3-1.4-3.5C42.6,48.7,41.4,49,41.6,49.8
			L41.6,49.8z"/>
	</g>
</g>
<g>
	<g>
		<path d="M45.2,61.5c0,0.5,0,0.9,0,1.4c0,0.8,1.3,0.8,1.3,0c0-0.5,0-0.9,0-1.4C46.4,60.7,45.2,60.7,45.2,61.5L45.2,61.5z"/>
	</g>
</g>
<g>
	<g>
		<path d="M45.9,37.7c0,1.4,0,2.8,0,4.2c0,0.8,1.3,0.8,1.3,0c0-1.4,0-2.8,0-4.2C47.1,36.9,45.9,36.9,45.9,37.7L45.9,37.7z"/>
	</g>
</g>
<g>
	<g>
		<path d="M49.4,48.8c-0.2,1.2-0.5,2.3-0.7,3.5c-0.2,0.8,1,1.1,1.2,0.3c0.2-1.2,0.5-2.3,0.7-3.5C50.7,48.3,49.5,48,49.4,48.8
			L49.4,48.8z"/>
	</g>
</g>
<g>
	<path class="st2" d="M110.7,110.1c-7-3.4-9.3-13.8-4.4-19.9c2.3-2.8,5.6-4.5,8.1-7.1c2.8-3,4.5-6.9,7.4-9.8c2.9-2.9,8-4.5,11-1.6
		c2.9,2.9,1.6,7.7,1.7,11.7c0.1,7.6,5.5,14.8,3.6,22.2c-1.7,6.4-9.6,10.4-15.8,7.8c-1.4-0.6-2.9-1.6-3.3-3.1
		c-0.3-0.9-0.2-2.1-0.9-2.7c-0.7-0.7-1.9-0.5-2.8-0.2C113.1,108,112.3,108.6,110.7,110.1"/>
	<g>
		<path class="st2" d="M111,109.5c-4.9-2.7-7.5-8.3-6.5-13.8c1.1-6.1,6.4-8.2,10.3-12.2c3.5-3.7,5.5-10.2,10.7-12
			c10.2-3.4,7.8,7.9,8.4,13.6c0.6,5.4,3.5,10.3,3.8,15.7c0.4,6.7-4.3,12.6-11.3,12.7c-5,0.1-4.8-2.3-7.4-5.5
			c-0.3-0.4-0.5-0.9-0.9-1.2c-2.5-1.7-6.1,1.2-7.9,2.7c-0.6,0.5,0.3,1.4,0.9,0.9c1.2-1.2,2.6-2.1,4.2-2.6c1.9,0.1,2.9,1,3,2.5
			c0.8,0.9,0.5,1.3,1.4,2.2c1.3,1.2,3.2,1.8,4.8,2.1c4.6,0.7,9.6-1.5,12.3-5.4c3.6-5.1,1.8-11.1,0.1-16.5c-1.3-4.1-2.1-7.9-1.9-12.2
			c0.1-2.6,0.4-5.3-0.8-7.7c-2.1-4.2-7.1-4.1-10.7-1.9c-2.3,1.3-3.8,3.4-5.3,5.6c-2.6,3.7-5,6.8-8.5,9.6c-4.3,3.4-7.2,7.4-6.7,13.2
			c0.4,4.8,3.1,9,7.3,11.3C111.1,111,111.7,109.9,111,109.5L111,109.5z"/>
	</g>
</g>
<g>
	<g>
		<path class="st2" d="M130.4,71.3c0.5-4,1-7.9,1.5-11.9c0.1-0.8-1.2-0.8-1.3,0c-0.5,4-1,7.9-1.5,11.9
			C129,72.1,130.3,72.1,130.4,71.3L130.4,71.3z"/>
	</g>
</g>
<g>
	<g>
		<path class="st2" d="M131.6,71.4c0.8-2.9,3-5,5.8-6.1c2.1-0.8,6.3-1.8,8.6-1.2c1.4-0.2,1.7,0.8,0.8,3.1c-0.8,0.4-1.6,0.7-2.5,1
			c-1.2,0.4-2.3,0.8-3.5,1.1c-2.9,0.8-5.9,1.2-9,1.3c-0.8,0-0.8,1.3,0,1.3c5-0.2,10.2-1.1,14.7-3.2c1.8-0.9,4.7-3.3,2.3-5.4
			c-1.1-1-3.3-0.5-4.6-0.5c-2.4,0.1-4.8,0.3-7.1,1.2c-3.3,1.2-5.8,3.6-6.7,6.9C130.1,71.9,131.3,72.2,131.6,71.4L131.6,71.4z"/>
	</g>
</g>
</svg>
